<?xml version="1.0" encoding="UTF-8" standalone="no"?>
<svg xmlns="http://www.w3.org/2000/svg" viewBox="0 30 1050 240" width="1050" height="240">
  <path fill="#ffffff" d="m 18.857032,265.82608 v -154 H 135.23703 v 28.6 H 54.277032 v 33.44 h 71.499998 v 27.72 H 54.277032 v 35.64 h 83.819998 v 28.6 z m 128.699898,0 45.54,-59.62 -44,-58.74 h 38.5 l 25.08,34.54 25.74,-34.54 h 36.52 l -44,57.86 45.76,60.5 h -38.94 l -25.96,-36.08 -26.84,36.08 z m 199.75997,1.76 q -19.14,0 -34.1,-7.7 -14.96,-7.92 -23.54,-21.56 -8.36,-13.86 -8.36,-31.68 0,-17.82 8.36,-31.46 8.58,-13.86 23.54,-21.56 14.96,-7.92 34.1,-7.92 18.7,0 32.56,7.92 13.86,7.7 20.46,22.22 l -26.62,14.3 q -4.62,-8.36 -11.66,-12.32 -6.82,-3.96 -14.96,-3.96 -13.2,0 -22.22,8.8 -8.8,8.58 -8.8,23.98 0,15.62 8.8,24.2 9.02,8.58 22.22,8.58 8.14,0 14.96,-3.74 7.04,-3.96 11.66,-12.54 l 26.62,14.52 q -6.6,14.08 -20.46,22 -13.86,7.92 -32.56,7.92 z m 130.01992,0 q -20.46,0 -35.64,-7.92 -15.18,-7.92 -23.54,-21.56 -8.36,-13.86 -8.36,-31.46 0,-17.82 8.14,-31.46 8.36,-13.86 22.66,-21.56 14.3,-7.92 32.34,-7.92 17.38,0 31.24,7.48 14.08,7.48 22.22,21.34 8.14,13.64 8.14,32.56 0,1.98 -0.22,4.62 -0.22,2.42 -0.44,4.62 h -89.54 q 2.64,11 11.44,17.38 9.02,6.38 22.44,6.38 9.46,0 16.5,-2.86 7.26,-2.86 13.2,-8.58 l 18.26,19.8 q -16.72,19.14 -48.84,19.14 z m -33.22,-71.28 h 58.08 q -1.76,-11.22 -9.68,-17.82 -7.7,-6.82 -19.36,-6.82 -11.66,0 -19.58,6.82 -7.7,6.6 -9.46,17.82 z m 113.30013,69.52 v -163.24 h 34.32 v 163.24 z m 138.82016,0 v -14.52 q -9.9,16.28 -36.08,16.28 -20.9,0 -32.56,-10.12 -11.66,-10.34 -11.66,-25.74 0,-15.62 11.88,-25.52 11.88,-9.9 38.94,-9.9 h 27.28 v 0 q 0,-11 -6.82,-17.16 -6.6,-6.16 -20.46,-6.16 -9.46,0 -18.7,3.08 -9.02,2.86 -15.4,7.92 l -12.32,-23.98 q 9.68,-6.82 23.32,-10.56 13.64,-3.74 27.72,-3.74 27.06,0 42.02,12.98 14.96,12.76 14.96,39.6 v 67.54 z m -2.2,-37.4 v -12.1 h -23.54 q -12.1,0 -16.72,3.96 -4.4,3.96 -4.4,9.9 0,6.6 5.06,10.56 5.28,3.74 14.3,3.74 8.58,0 15.4,-3.96 6.82,-4.18 9.9,-12.1 z m 65.34011,37.4 v -118.36 h 32.78 v 14.08 q 6.82,-7.7 16.94,-11.66 10.12,-4.18 22.22,-4.18 14.08,0 25.08,5.72 11.22,5.5 17.6,17.16 6.38,11.44 6.38,29.48 v 67.76 h -34.32 v -62.48 q 0,-14.3 -6.38,-21.12 -6.38,-6.82 -17.6,-6.82 -12.32,0 -20.46,7.92 -7.92,7.7 -7.92,23.98 v 58.52 z m 209.2199,1.76 q -18.92,0 -33.66,-7.7 -14.52,-7.92 -23.1,-21.56 -8.36,-13.86 -8.36,-31.68 0,-17.82 8.36,-31.46 8.58,-13.86 23.1,-21.56 14.74,-7.92 33.66,-7.92 18.7,0 33.43998,7.92 14.74,7.7 23.1,21.56 8.36,13.64 8.36,31.46 0,17.82 -8.36,31.68 -8.36,13.64 -23.1,21.56 -14.73998,7.7 -33.43998,7.7 z m 0,-28.16 q 12.76,0 21.34,-8.8 8.8,-8.8 8.8,-23.98 0,-15.4 -8.8,-23.98 -8.58,-8.8 -21.34,-8.8 -12.98,0 -21.78,8.8 -8.58,8.58 -8.58,23.98 0,15.18 8.58,23.98 8.8,8.8 21.78,8.8 z" aria-label="Excelano"/>
  <polygon fill="#16A34A" points="242.37,140.63 328.60,33.21 369.62,33.21 283.39,140.63 233.63,202.62 211.78,229.84 191.10,203.76 141.02,140.63 184.45,140.63 213.07,176.70"/>
</svg>
